<svg xmlns="http://www.w3.org/2000/svg" viewBox="0 0 512 512">
  <circle cx="256" cy="256" r="240" fill="#022c22" stroke="#22c55e" stroke-width="16"/>
  <path d="M256 140c-22 34-38 66-34 100s22 54 34 64c10-10 28-32 34-64s-10-66-34-100z" fill="#4ade80"/>
  <path d="M224 180c-32 0-54 22-54 34s22 10 44 0 22-22 10-34z" fill="#4ade80"/>
  <path d="M288 180c32 0 54 22 54 34s-22 10-44 0-22-22-10-34z" fill="#4ade80"/>
  <path d="M216 224c-34 10-44 32-32 32s32 0 42-10 12-22-10-22z" fill="#4ade80"/>
  <path d="M296 224c34 10 44 32 32 32s-32 0-42-10-12-22 10-22z" fill="#4ade80"/>
  <circle cx="256" cy="256" r="32" fill="#a3e635"/>
</svg>
